<svg width="540" xmlns="http://www.w3.org/2000/svg" height="540" id="screenshot-22198eb3-a966-8066-8008-3e0d08e8c664" viewBox="-0 0 540 540" xmlns:xlink="http://www.w3.org/1999/xlink" fill="none" version="1.1"><g id="shape-22198eb3-a966-8066-8008-3e0d08e8c664"><g class="frame-container-wrapper"><g class="frame-container-blur"><g class="frame-container-shadows"><g fill="none"><g class="fills" id="fills-22198eb3-a966-8066-8008-3e0d08e8c664"><rect rx="0" ry="0" x="0" y="0" width="539.9998779296875" height="540" transform="matrix(1.000000, 0.000000, 0.000000, 1.000000, 0.000000, 0.000000)" class="frame-background"/></g><g class="frame-children"><g id="shape-22198eb3-a966-8066-8008-3e0cf8e7ba11" rx="0" ry="0"><g id="shape-22198eb3-a966-8066-8008-3e0b6061f466"><g class="fills" id="fills-22198eb3-a966-8066-8008-3e0b6061f466"><path d="M269.99951171875,0C419.0167236328125,0,539.9998779296875,120.9830322265625,539.9998779296875,270C539.9998779296875,419.0172119140625,419.0167236328125,540,269.99951171875,540C120.9827880859375,540,0,419.0172119140625,0,270C0,120.9830322265625,120.9827880859375,0,269.99951171875,0M269.9998779296875,10C126.501953125,10,9.9998779296875,126.5020751953125,9.9998779296875,270C9.9998779296875,413.4979248046875,126.501953125,530,269.9998779296875,530C413.497802734375,530,529.9998779296875,413.4979248046875,529.9998779296875,270C529.9998779296875,126.5020751953125,413.497802734375,10,269.9998779296875,10" style="fill: rgb(195, 181, 151); fill-opacity: 1;"/></g></g><g id="shape-22198eb3-a966-8066-8008-3e0caa4e654c"><g class="fills" id="fills-22198eb3-a966-8066-8008-3e0caa4e654c"><path d="M173,154L242,154L242,387L173,387L173,154M181,161L181,379L234,379L234,161L181,161" style="fill: rgb(195, 181, 151); fill-opacity: 1;"/></g></g><g id="shape-22198eb3-a966-8066-8008-3e0cb0d8a2da"><g class="fills" id="fills-22198eb3-a966-8066-8008-3e0cb0d8a2da"><path d="M297,154L366,154L366,387L297,387L297,154M305,161L305,379L358,379L358,161L305,161" style="fill: rgb(195, 181, 151); fill-opacity: 1;"/></g></g></g></g></g></g></g></g></g></svg>