<svg width="540" xmlns="http://www.w3.org/2000/svg" height="540" id="screenshot-22198eb3-a966-8066-8008-3e0be2d749f8" viewBox="-0 0 540 540" xmlns:xlink="http://www.w3.org/1999/xlink" fill="none" version="1.1"><g id="shape-22198eb3-a966-8066-8008-3e0be2d749f8"><g class="frame-container-wrapper"><g class="frame-container-blur"><g class="frame-container-shadows"><g fill="none"><g class="fills" id="fills-22198eb3-a966-8066-8008-3e0be2d749f8"><rect rx="0" ry="0" x="0" y="0" width="539.9998779296875" height="540" transform="matrix(1.000000, 0.000000, 0.000000, 1.000000, 0.000000, 0.000000)" class="frame-background"/></g><g class="frame-children"><g id="shape-22198eb3-a966-8066-8008-3e0b58be0444" rx="0" ry="0"><g id="shape-22198eb3-a966-8066-8008-3e0b58be0445"><g class="fills" id="fills-22198eb3-a966-8066-8008-3e0b58be0445"><path d="M412.0003662109375,270.0000305175781L184.9998779296875,408.0000305175781L184.9998779296875,132.00003051757812L412.0003662109375,270.0000305175781M399.30023193359375,269.7001037597656L192.30035400390625,146.69998168945312L192.30035400390625,392.7001037597656L399.30023193359375,269.7001037597656" style="fill: rgb(195, 181, 151); fill-opacity: 1;"/></g></g><g id="shape-22198eb3-a966-8066-8008-3e0b58be0446"><g class="fills" id="fills-22198eb3-a966-8066-8008-3e0b58be0446"><path d="M269.99951171875,0.000030517578125C419.0167236328125,0.000030517578125,539.9998779296875,120.98306274414062,539.9998779296875,270.0000305175781C539.9998779296875,419.0172424316406,419.0167236328125,540,269.99951171875,540C120.9827880859375,540,0,419.0172424316406,0,270.0000305175781C0,120.98306274414062,120.9827880859375,0.000030517578125,269.99951171875,0.000030517578125M269.9998779296875,10.000030517578125C126.501953125,10.000030517578125,9.9998779296875,126.50210571289062,9.9998779296875,270.0000305175781C9.9998779296875,413.4979553222656,126.501953125,530,269.9998779296875,530C413.497802734375,530,529.9998779296875,413.4979553222656,529.9998779296875,270.0000305175781C529.9998779296875,126.50210571289062,413.497802734375,10.000030517578125,269.9998779296875,10.000030517578125" style="fill: rgb(195, 181, 151); fill-opacity: 1;"/></g></g></g></g></g></g></g></g></g></svg>